# xmcd CD database file
#
# Track frame offsets:
#	183
#	12945
#	23620
#	35835
#	50200
#	64275
#	77348
#	90990
#	105760
#	118753
#	131410
#	144818
#	160498
#	174740
#	188073
#	203455
#	217868
#	231863
#	245065
#	257915
#
# Disc length: 3624 seconds
#
# Revision: 0
# Processed by: cddbd v1.5PL3 Copyright (c) Steve Scherf et al.
# Submitted via: CDex 1.51
#
DISCID=080e2614
DTITLE=Lionel Hampton - All-Star Sessions, vol. 1
DYEAR=1994
DGENRE=Jazz
TTITLE0=My Last Affair
TTITLE1=Jivin' The Vibes
TTITLE2=The Mood That I'm In
TTITLE3=Stomp
TTITLE4=Buzzin' Round With The Bee
TTITLE5=Whoa Babe
TTITLE6=Stompology
TTITLE7=On The Sunny Side Of The  Street
TTITLE8=Rhythm, Rhythm
TTITLE9=China Stomp
TTITLE10=I Know That You Know
TTITLE11=I'm Confessin'
TTITLE12=Drum Stomp
TTITLE13=Piano Stomp
TTITLE14=I Surrender, Dear
TTITLE15=The Object Of My Affection
TTITLE16=Judy
TTITLE17=Baby, Won't You Please Come Home
TTITLE18=Everybody Loves My Baby
TTITLE19=After You've Gone
EXTD=YEAR: 1994
EXTT0=
EXTT1=
EXTT2=
EXTT3=
EXTT4=
EXTT5=
EXTT6=
EXTT7=
EXTT8=
EXTT9=
EXTT10=
EXTT11=
EXTT12=
EXTT13=
EXTT14=
EXTT15=
EXTT16=
EXTT17=
EXTT18=
EXTT19=
PLAYORDER=
